ply
format ascii 1.0
comment Synthetic point cloud for directive-engine CLI demo
comment Two vertical panel edges, 10 points each
comment P-01 sits ~0mm from nominal (sub-tolerance, will report OK)
comment P-02 sits ~6mm from nominal in +X (exceeds 5mm tolerance, will emit a directive)
element vertex 20
property float x
property float y
property float z
end_header
0.1 50 0.0
-0.1 150 0.1
0.2 250 -0.1
0.0 350 0.0
-0.1 450 0.1
0.1 550 -0.1
0.0 650 0.0
-0.1 750 0.1
0.2 850 -0.1
0.0 950 0.0
506.0 50 0.0
505.9 150 0.1
506.1 250 -0.1
506.0 350 0.0
505.8 450 0.1
506.2 550 -0.1
506.0 650 0.0
505.9 750 0.1
506.1 850 -0.1
506.0 950 0.0
